<svg xmlns="http://www.w3.org/2000/svg" viewBox="0 0 53 53" shape-rendering="crispEdges"><path fill="#FFFFFF" d="M0 0h53v53H0z"/><path stroke="#000000" d="M2 2.5h7m2 0h1m2 0h1m1 0h5m3 0h1m1 0h1m2 0h2m1 0h1m3 0h1m1 0h2m2 0h1m1 0h7M2 3.5h1m5 0h1m1 0h2m1 0h5m1 0h4m3 0h1m2 0h6m1 0h1m2 0h4m1 0h1m5 0h1M2 4.5h1m1 0h3m1 0h1m1 0h2m2 0h1m1 0h1m1 0h1m2 0h1m1 0h1m1 0h1m2 0h2m3 0h1m1 0h2m2 0h1m1 0h2m1 0h1m1 0h3m1 0h1M2 5.5h1m1 0h3m1 0h1m1 0h1m4 0h1m3 0h4m1 0h1m2 0h2m1 0h2m2 0h1m1 0h2m1 0h1m1 0h1m2 0h1m1 0h3m1 0h1M2 6.5h1m1 0h3m1 0h1m1 0h1m2 0h1m2 0h1m2 0h2m1 0h1m1 0h7m2 0h1m1 0h2m7 0h1m1 0h3m1 0h1M2 7.5h1m5 0h1m1 0h1m5 0h4m1 0h1m2 0h1m3 0h2m2 0h1m1 0h4m2 0h1m3 0h1m5 0h1M2 8.5h7m1 0h1m1 0h1m1 0h1m1 0h1m1 0h1m1 0h1m1 0h1m1 0h1m1 0h1m1 0h1m1 0h1m1 0h1m1 0h1m1 0h1m1 0h1m1 0h1m1 0h1m1 0h7M11 9.5h1m1 0h2m2 0h1m2 0h1m1 0h1m1 0h1m3 0h1m2 0h5m6 0h1M4 10.5h1m2 0h4m3 0h1m1 0h1m1 0h1m5 0h6m2 0h1m1 0h1m1 0h1m2 0h1m3 0h1m1 0h5M3 11.5h1m1 0h2m2 0h3m5 0h1m2 0h2m3 0h5m3 0h1m1 0h1m2 0h2m1 0h1m1 0h1m2 0h2m1 0h2M2 12.5h2m4 0h2m1 0h1m1 0h2m1 0h3m1 0h1m1 0h1m2 0h1m1 0h1m1 0h2m4 0h1m3 0h1m1 0h3m3 0h2m1 0h1M2 13.5h3m1 0h2m2 0h3m1 0h1m2 0h1m1 0h1m1 0h1m2 0h3m1 0h1m2 0h2m2 0h2m1 0h2m1 0h2m1 0h1m1 0h2m1 0h1M3 14.5h3m1 0h3m4 0h1m2 0h3m1 0h1m2 0h1m1 0h8m2 0h3m1 0h2m1 0h1m2 0h2M3 15.5h2m1 0h2m3 0h2m1 0h1m1 0h1m1 0h2m5 0h1m2 0h2m5 0h1m1 0h3m3 0h1m1 0h2m1 0h3M3 16.5h3m2 0h2m2 0h1m4 0h2m1 0h1m3 0h1m1 0h1m2 0h1m1 0h3m1 0h1m3 0h1m1 0h1m1 0h1m1 0h2m1 0h1m1 0h1M4 17.5h1m2 0h1m2 0h2m1 0h3m2 0h1m4 0h2m3 0h1m1 0h1m2 0h2m3 0h1m3 0h6M2 18.5h5m1 0h1m2 0h1m2 0h2m4 0h1m1 0h1m5 0h1m1 0h2m4 0h1m1 0h1m1 0h4m2 0h2m1 0h2M3 19.5h1m3 0h1m1 0h1m1 0h2m3 0h1m1 0h3m1 0h2m2 0h1m11 0h1m2 0h5m2 0h1m1 0h1M4 20.5h2m1 0h2m2 0h1m1 0h1m2 0h1m1 0h3m3 0h2m6 0h2m2 0h1m3 0h2m1 0h6m1 0h1M3 21.5h1m5 0h2m2 0h1m1 0h2m3 0h1m1 0h4m1 0h1m2 0h2m1 0h1m1 0h1m1 0h6m2 0h3m2 0h1M4 22.5h3m1 0h1m1 0h1m2 0h7m1 0h1m2 0h1m13 0h1m2 0h1m1 0h2m1 0h1m2 0h2M2 23.5h2m5 0h2m4 0h2m1 0h1m2 0h2m2 0h1m1 0h1m2 0h5m2 0h1m3 0h1m1 0h1m6 0h1M3 24.5h2m1 0h6m2 0h4m1 0h1m1 0h1m2 0h5m6 0h1m1 0h3m1 0h6m1 0h1m1 0h1M2 25.5h1m1 0h3m3 0h5m3 0h2m3 0h2m3 0h4m4 0h1m1 0h2m1 0h2m3 0h2m1 0h1M2 26.5h1m2 0h2m1 0h1m1 0h2m1 0h1m1 0h1m1 0h1m2 0h5m1 0h1m1 0h2m1 0h1m4 0h1m1 0h1m1 0h1m1 0h1m1 0h1m1 0h2m1 0h1M2 27.5h2m1 0h2m3 0h2m1 0h1m1 0h1m4 0h1m2 0h2m3 0h1m1 0h1m1 0h1m1 0h2m1 0h1m1 0h1m1 0h2m3 0h2m2 0h1M2 28.5h3m1 0h5m1 0h1m5 0h1m1 0h1m1 0h1m1 0h5m1 0h1m1 0h1m4 0h1m3 0h8m1 0h1M2 29.5h1m1 0h1m1 0h2m1 0h1m1 0h1m2 0h3m1 0h2m2 0h2m7 0h1m2 0h12m3 0h2M2 30.5h1m3 0h1m1 0h2m1 0h1m2 0h2m5 0h2m1 0h2m1 0h1m3 0h2m1 0h1m3 0h1m1 0h2m1 0h5m1 0h2M3 31.5h2m1 0h1m2 0h3m1 0h1m2 0h6m2 0h2m1 0h3m3 0h1m1 0h1m1 0h3m2 0h3m3 0h1m1 0h1M3 32.5h1m1 0h2m1 0h8m1 0h1m2 0h1m1 0h3m2 0h1m3 0h2m2 0h1m2 0h2m2 0h1m1 0h1m1 0h2m2 0h1M6 33.5h1m3 0h1m2 0h1m1 0h2m1 0h1m3 0h3m3 0h4m1 0h1m3 0h1m3 0h2m1 0h1m2 0h1m1 0h1M4 34.5h5m1 0h4m3 0h2m1 0h1m1 0h4m2 0h1m2 0h1m1 0h2m1 0h3m1 0h6m1 0h1M2 35.5h2m1 0h1m1 0h1m5 0h3m1 0h2m1 0h1m1 0h2m3 0h1m5 0h1m1 0h1m1 0h1m1 0h1m1 0h1m1 0h1m1 0h1m1 0h1m1 0h2M2 36.5h3m2 0h2m1 0h1m3 0h1m3 0h3m1 0h5m1 0h1m3 0h3m2 0h3m1 0h2m1 0h1m1 0h1m1 0h3M2 37.5h4m4 0h2m1 0h4m1 0h1m5 0h1m1 0h1m5 0h1m1 0h2m2 0h1m1 0h7M2 38.5h1m3 0h1m1 0h3m1 0h5m1 0h2m1 0h1m2 0h2m1 0h1m3 0h1m1 0h4m1 0h1m1 0h6m1 0h1m2 0h1M2 39.5h2m2 0h1m2 0h3m1 0h1m2 0h1m2 0h4m3 0h1m1 0h1m1 0h1m2 0h1m1 0h1m2 0h2m1 0h3m1 0h1m1 0h4M3 40.5h1m3 0h2m5 0h1m4 0h1m3 0h1m1 0h2m3 0h1m3 0h2m1 0h2m2 0h1m1 0h2m3 0h1m1 0h1M3 41.5h3m7 0h2m1 0h1m2 0h6m2 0h1m1 0h1m1 0h1m2 0h3m1 0h4m2 0h4m2 0h1M2 42.5h3m3 0h5m1 0h2m7 0h7m2 0h4m2 0h2m1 0h7M10 43.5h4m1 0h1m1 0h2m2 0h2m1 0h1m3 0h1m5 0h3m2 0h4m3 0h2m1 0h2M2 44.5h7m1 0h3m2 0h1m2 0h1m2 0h1m1 0h2m1 0h1m1 0h4m1 0h4m2 0h2m1 0h1m1 0h1m1 0h3m1 0h1M2 45.5h1m5 0h1m1 0h1m1 0h1m1 0h1m1 0h4m3 0h2m3 0h3m3 0h3m1 0h3m1 0h1m3 0h2M2 46.5h1m1 0h3m1 0h1m2 0h1m1 0h2m1 0h1m1 0h1m5 0h6m1 0h2m1 0h2m2 0h1m2 0h6m2 0h2M2 47.5h1m1 0h3m1 0h1m2 0h1m1 0h2m2 0h1m1 0h1m6 0h3m1 0h2m1 0h1m1 0h1m2 0h2m1 0h1m4 0h1m1 0h1M2 48.5h1m1 0h3m1 0h1m1 0h1m1 0h1m2 0h4m2 0h2m1 0h2m1 0h1m3 0h3m3 0h2m2 0h2m1 0h1m1 0h1m1 0h1m1 0h1M2 49.5h1m5 0h1m4 0h2m1 0h2m1 0h1m3 0h1m1 0h2m2 0h1m1 0h2m1 0h1m3 0h2m1 0h1m1 0h1m1 0h3M2 50.5h7m5 0h1m9 0h1m3 0h1m2 0h1m1 0h2m3 0h2m1 0h3m3 0h1m2 0h1"/></svg>
