<svg xmlns="http://www.w3.org/2000/svg" viewBox="0 0 53 53" shape-rendering="crispEdges"><path fill="#FFFFFF" d="M0 0h53v53H0z"/><path stroke="#000000" d="M2 2.5h7m1 0h6m1 0h1m2 0h4m4 0h1m2 0h2m4 0h2m3 0h1m1 0h7M2 3.5h1m5 0h1m1 0h1m2 0h1m1 0h2m2 0h1m1 0h2m2 0h3m2 0h1m1 0h2m1 0h2m1 0h5m1 0h1m5 0h1M2 4.5h1m1 0h3m1 0h1m1 0h6m3 0h1m2 0h2m4 0h1m1 0h2m1 0h3m1 0h1m3 0h2m1 0h1m1 0h3m1 0h1M2 5.5h1m1 0h3m1 0h1m2 0h1m2 0h2m1 0h1m1 0h1m1 0h4m1 0h7m1 0h6m1 0h1m2 0h1m1 0h3m1 0h1M2 6.5h1m1 0h3m1 0h1m3 0h1m2 0h1m2 0h1m1 0h2m1 0h8m1 0h4m1 0h1m1 0h1m4 0h1m1 0h3m1 0h1M2 7.5h1m5 0h1m1 0h2m2 0h1m3 0h1m2 0h1m1 0h2m3 0h1m2 0h1m2 0h1m1 0h3m1 0h1m3 0h1m5 0h1M2 8.5h7m1 0h1m1 0h1m1 0h1m1 0h1m1 0h1m1 0h1m1 0h1m1 0h1m1 0h1m1 0h1m1 0h1m1 0h1m1 0h1m1 0h1m1 0h1m1 0h1m1 0h1m1 0h7M10 9.5h1m2 0h1m1 0h2m3 0h1m1 0h1m1 0h1m3 0h2m1 0h1m1 0h2m3 0h1m2 0h2M4 10.5h3m1 0h1m1 0h1m2 0h2m1 0h1m1 0h1m2 0h2m1 0h10m3 0h1m2 0h1m1 0h4m2 0h3M2 11.5h5m2 0h3m2 0h1m2 0h1m3 0h1m1 0h3m1 0h2m3 0h2m5 0h1m3 0h2m1 0h1m2 0h1M5 12.5h4m1 0h2m2 0h1m1 0h3m4 0h2m3 0h2m1 0h1m1 0h5m2 0h2m3 0h3m1 0h2M2 13.5h3m2 0h1m2 0h1m3 0h4m2 0h1m2 0h3m2 0h2m1 0h1m4 0h1m5 0h1m3 0h1m2 0h2M2 14.5h2m1 0h1m1 0h2m1 0h2m2 0h3m3 0h1m1 0h1m1 0h3m2 0h1m2 0h1m1 0h1m1 0h3m1 0h3m2 0h1m1 0h3M2 15.5h1m1 0h2m1 0h1m4 0h1m2 0h1m2 0h1m1 0h1m2 0h1m1 0h2m1 0h1m3 0h1m6 0h1m1 0h1m1 0h5m1 0h1M3 16.5h1m1 0h1m1 0h2m1 0h3m1 0h1m1 0h1m5 0h1m2 0h6m1 0h1m1 0h1m1 0h1m1 0h1m1 0h3m6 0h2M2 17.5h1m1 0h3m3 0h1m4 0h2m2 0h4m1 0h1m1 0h1m1 0h3m1 0h4m5 0h3m1 0h3m2 0h1M2 18.5h2m1 0h1m1 0h5m4 0h1m1 0h3m3 0h2m1 0h1m5 0h2m2 0h3m1 0h1m3 0h1m4 0h1M5 19.5h1m3 0h1m2 0h1m3 0h3m3 0h1m6 0h1m2 0h1m2 0h1m6 0h2m1 0h1m1 0h2M3 20.5h1m1 0h2m1 0h6m1 0h1m1 0h2m1 0h2m5 0h2m1 0h3m1 0h1m2 0h1m1 0h1m1 0h2m1 0h1m2 0h1m1 0h2M2 21.5h2m1 0h2m4 0h1m2 0h4m6 0h2m1 0h1m1 0h2m6 0h1m1 0h2m1 0h1m1 0h3M3 22.5h1m1 0h1m2 0h1m1 0h1m1 0h1m1 0h1m2 0h1m4 0h1m2 0h5m1 0h2m3 0h5m1 0h1m1 0h2m2 0h1m1 0h1M3 23.5h1m1 0h2m2 0h1m1 0h1m2 0h5m1 0h4m1 0h3m5 0h1m1 0h1m1 0h2m4 0h2m2 0h1M6 24.5h9m2 0h2m3 0h1m1 0h5m2 0h3m1 0h2m1 0h1m1 0h7m2 0h2M4 25.5h1m1 0h1m3 0h1m1 0h2m3 0h4m3 0h1m3 0h1m2 0h1m3 0h2m2 0h1m2 0h1m3 0h1m2 0h1M2 26.5h2m1 0h2m1 0h1m1 0h3m3 0h5m2 0h2m1 0h1m1 0h7m2 0h3m1 0h2m1 0h1m1 0h3m1 0h1M3 27.5h1m1 0h2m3 0h1m2 0h3m1 0h1m6 0h1m3 0h1m5 0h1m2 0h3m1 0h2m3 0h1m3 0h1M2 28.5h1m1 0h1m1 0h5m2 0h1m1 0h2m2 0h3m2 0h5m1 0h1m2 0h2m1 0h1m2 0h9m1 0h1M4 29.5h2m1 0h1m2 0h1m4 0h6m1 0h2m1 0h1m3 0h1m3 0h1m2 0h2m1 0h2m1 0h2m1 0h1m1 0h1M2 30.5h2m3 0h3m1 0h4m1 0h1m1 0h2m4 0h1m3 0h2m2 0h1m3 0h4m1 0h2m1 0h2m1 0h3M2 31.5h2m2 0h1m2 0h1m3 0h2m1 0h1m1 0h2m1 0h1m2 0h1m4 0h1m1 0h1m1 0h1m3 0h1m1 0h1m1 0h3m3 0h2M2 32.5h1m4 0h2m1 0h3m1 0h2m1 0h2m2 0h1m2 0h1m1 0h4m1 0h1m3 0h4m1 0h1m2 0h3m1 0h4M2 33.5h3m1 0h1m3 0h2m1 0h7m2 0h5m1 0h1m1 0h4m1 0h1m1 0h2m3 0h1m6 0h2M8 34.5h2m1 0h2m1 0h1m5 0h1m3 0h1m3 0h1m1 0h1m7 0h2m1 0h1m2 0h6M3 35.5h3m1 0h1m1 0h2m1 0h2m1 0h3m1 0h1m3 0h3m3 0h1m2 0h2m3 0h3m3 0h3m3 0h1M4 36.5h3m1 0h5m2 0h5m1 0h5m1 0h2m1 0h3m3 0h1m1 0h1m1 0h2m1 0h3m4 0h1M2 37.5h1m2 0h1m4 0h2m2 0h2m2 0h2m1 0h1m2 0h1m1 0h1m2 0h1m5 0h1m1 0h1m1 0h1m2 0h2m1 0h3m2 0h1M3 38.5h2m2 0h2m4 0h2m2 0h1m4 0h1m5 0h1m1 0h1m2 0h2m1 0h4m1 0h1m2 0h1m1 0h5M3 39.5h1m1 0h2m2 0h9m2 0h1m2 0h1m5 0h2m1 0h1m1 0h2m1 0h3m2 0h4m2 0h2M3 40.5h1m3 0h4m1 0h1m1 0h1m2 0h4m1 0h2m2 0h1m1 0h1m2 0h1m1 0h3m4 0h3m1 0h7M3 41.5h3m7 0h1m1 0h1m4 0h1m1 0h1m1 0h1m1 0h1m4 0h2m1 0h1m1 0h1m2 0h2m4 0h2m1 0h1M2 42.5h3m3 0h1m2 0h1m1 0h1m4 0h1m4 0h10m2 0h4m1 0h8m1 0h1M10 43.5h1m7 0h2m3 0h2m3 0h2m2 0h1m1 0h1m1 0h1m1 0h3m1 0h1m3 0h1m2 0h1M2 44.5h7m2 0h1m2 0h1m1 0h2m1 0h1m1 0h4m1 0h1m1 0h2m5 0h1m1 0h1m4 0h1m1 0h1m1 0h2m1 0h2M2 45.5h1m5 0h1m2 0h2m1 0h1m1 0h5m1 0h1m1 0h1m3 0h2m1 0h1m2 0h1m1 0h1m2 0h4m3 0h1m3 0h1M2 46.5h1m1 0h3m1 0h1m1 0h3m1 0h2m3 0h1m1 0h2m1 0h5m1 0h1m2 0h1m1 0h12m1 0h1m1 0h1M2 47.5h1m1 0h3m1 0h1m1 0h1m2 0h1m5 0h2m2 0h1m3 0h3m1 0h1m1 0h1m5 0h1m3 0h2m1 0h3m1 0h1M2 48.5h1m1 0h3m1 0h1m1 0h1m2 0h1m3 0h1m1 0h1m8 0h3m3 0h1m1 0h1m1 0h4m1 0h3m3 0h2M2 49.5h1m5 0h1m2 0h1m1 0h1m2 0h1m2 0h2m4 0h1m8 0h2m3 0h1m3 0h4m3 0h1M2 50.5h7m3 0h5m1 0h2m1 0h2m2 0h1m1 0h1m8 0h3m1 0h2m3 0h6"/></svg>
