<svg xmlns="http://www.w3.org/2000/svg" viewBox="0 0 49 49" shape-rendering="crispEdges"><path fill="#FFFFFF" d="M0 0h49v49H0z"/><path stroke="#000000" d="M2 2.5h7m1 0h2m1 0h1m1 0h3m3 0h2m2 0h1m1 0h1m4 0h4m2 0h1m1 0h7M2 3.5h1m5 0h1m1 0h3m1 0h4m1 0h2m4 0h1m1 0h2m4 0h1m3 0h1m2 0h1m5 0h1M2 4.5h1m1 0h3m1 0h1m1 0h2m4 0h1m2 0h2m2 0h1m3 0h1m2 0h1m1 0h1m1 0h2m1 0h1m2 0h1m1 0h3m1 0h1M2 5.5h1m1 0h3m1 0h1m3 0h1m5 0h1m2 0h1m1 0h1m2 0h1m1 0h2m1 0h3m3 0h2m1 0h1m1 0h3m1 0h1M2 6.5h1m1 0h3m1 0h1m2 0h3m2 0h1m5 0h8m1 0h2m1 0h1m1 0h3m1 0h1m1 0h3m1 0h1M2 7.5h1m5 0h1m1 0h2m2 0h2m2 0h2m1 0h2m3 0h1m2 0h1m5 0h1m4 0h1m5 0h1M2 8.5h7m1 0h1m1 0h1m1 0h1m1 0h1m1 0h1m1 0h1m1 0h1m1 0h1m1 0h1m1 0h1m1 0h1m1 0h1m1 0h1m1 0h1m1 0h1m1 0h7M10 9.5h1m3 0h1m1 0h1m1 0h2m1 0h2m3 0h1m3 0h1m1 0h1m1 0h1m1 0h2M4 10.5h3m1 0h1m1 0h1m2 0h3m1 0h3m2 0h7m1 0h4m2 0h1m2 0h3m2 0h3M2 11.5h6m1 0h1m3 0h1m1 0h2m2 0h4m3 0h2m3 0h3m1 0h1m1 0h3m3 0h2m1 0h1M4 12.5h1m3 0h1m1 0h2m1 0h1m2 0h1m2 0h1m1 0h2m4 0h2m1 0h2m3 0h2m3 0h1m1 0h4M2 13.5h3m1 0h2m1 0h2m1 0h2m2 0h1m2 0h3m3 0h1m1 0h1m1 0h1m1 0h1m2 0h1m1 0h2m4 0h5M2 14.5h1m1 0h5m7 0h3m4 0h1m4 0h1m3 0h2m1 0h1m1 0h1m7 0h2M2 15.5h1m3 0h1m3 0h1m1 0h1m1 0h1m2 0h3m2 0h1m1 0h3m2 0h1m1 0h2m1 0h1m2 0h3m6 0h1M2 16.5h3m1 0h3m1 0h2m1 0h6m1 0h1m2 0h1m1 0h4m7 0h5m1 0h1m1 0h1M3 17.5h1m1 0h1m1 0h1m1 0h3m4 0h1m2 0h2m1 0h1m1 0h1m1 0h3m2 0h2m1 0h2m2 0h1m2 0h6M2 18.5h1m5 0h3m4 0h1m3 0h1m2 0h1m1 0h3m1 0h6m1 0h2m2 0h1m1 0h1m1 0h1M2 19.5h1m2 0h1m3 0h1m1 0h3m1 0h2m1 0h2m1 0h2m1 0h1m3 0h2m1 0h3m3 0h3m1 0h1m2 0h3M3 20.5h2m1 0h4m1 0h1m3 0h1m1 0h2m3 0h5m1 0h4m2 0h3m2 0h2m4 0h1M2 21.5h1m1 0h1m1 0h2m2 0h1m2 0h1m1 0h3m2 0h1m4 0h3m4 0h4m1 0h8M2 22.5h1m3 0h5m2 0h1m1 0h1m2 0h2m2 0h5m3 0h2m1 0h1m4 0h5M3 23.5h1m2 0h1m3 0h1m1 0h2m1 0h1m2 0h1m1 0h3m3 0h1m1 0h1m3 0h4m1 0h2m3 0h2m2 0h1M2 24.5h5m1 0h1m1 0h2m2 0h1m1 0h2m1 0h2m1 0h1m1 0h1m1 0h3m1 0h1m1 0h2m1 0h2m1 0h1m1 0h1m1 0h1m2 0h1M4 25.5h3m3 0h1m2 0h2m1 0h1m1 0h1m2 0h2m3 0h2m2 0h1m2 0h2m1 0h1m1 0h1m3 0h3M2 26.5h1m3 0h5m2 0h3m1 0h1m1 0h9m1 0h2m2 0h1m4 0h6M5 27.5h1m3 0h2m1 0h1m7 0h1m3 0h1m1 0h2m2 0h1m1 0h1m4 0h4m5 0h1M3 28.5h2m1 0h5m1 0h2m1 0h5m3 0h1m5 0h1m1 0h1m1 0h7m3 0h3M4 29.5h1m2 0h1m2 0h2m3 0h2m2 0h3m2 0h2m3 0h2m3 0h1m1 0h3m1 0h5m1 0h1M2 30.5h3m3 0h8m1 0h2m4 0h2m3 0h1m4 0h1m2 0h1m3 0h1m1 0h1m2 0h2M3 31.5h3m4 0h2m1 0h4m1 0h1m3 0h3m2 0h1m1 0h1m1 0h2m1 0h1m5 0h1m3 0h3M2 32.5h1m3 0h1m1 0h1m1 0h1m7 0h1m1 0h1m5 0h4m1 0h1m4 0h1m1 0h2m1 0h1m1 0h2M7 33.5h1m1 0h2m4 0h1m2 0h13m1 0h1m1 0h1m2 0h1m2 0h1m2 0h2m1 0h1M2 34.5h2m1 0h1m2 0h1m1 0h1m3 0h1m2 0h3m1 0h2m3 0h1m2 0h1m1 0h1m1 0h1m5 0h1m1 0h3M2 35.5h1m1 0h2m3 0h2m1 0h6m1 0h2m3 0h1m1 0h2m2 0h4m3 0h1m3 0h1m1 0h4M6 36.5h1m1 0h3m7 0h1m1 0h1m5 0h3m3 0h3m1 0h4m1 0h2m1 0h2M3 37.5h4m5 0h1m1 0h2m2 0h2m1 0h1m1 0h1m2 0h1m4 0h2m1 0h4m2 0h2m1 0h3M2 38.5h1m2 0h2m1 0h3m1 0h1m2 0h1m2 0h1m1 0h1m1 0h7m1 0h4m4 0h6m2 0h1M10 39.5h3m1 0h1m1 0h2m1 0h4m3 0h2m1 0h4m1 0h1m2 0h2m3 0h1m1 0h3M2 40.5h7m2 0h1m1 0h1m1 0h5m1 0h2m1 0h1m1 0h1m2 0h2m1 0h2m1 0h4m1 0h1m1 0h4M2 41.5h1m5 0h1m6 0h5m2 0h1m3 0h2m3 0h1m1 0h2m1 0h1m1 0h1m3 0h3m1 0h1M2 42.5h1m1 0h3m1 0h1m1 0h2m1 0h2m1 0h1m1 0h1m3 0h5m2 0h2m1 0h2m4 0h5m2 0h2M2 43.5h1m1 0h3m1 0h1m1 0h1m3 0h1m1 0h1m1 0h1m2 0h3m2 0h2m1 0h6m7 0h1m1 0h1M2 44.5h1m1 0h3m1 0h1m1 0h4m1 0h4m1 0h2m1 0h2m5 0h1m1 0h2m1 0h7m2 0h2M2 45.5h1m5 0h1m2 0h3m2 0h1m1 0h7m1 0h1m2 0h1m4 0h1m2 0h1m3 0h1m1 0h2M2 46.5h7m4 0h1m1 0h2m3 0h1m1 0h1m1 0h4m2 0h1m2 0h1m4 0h3m2 0h1m1 0h1"/></svg>
