<svg xmlns="http://www.w3.org/2000/svg" viewBox="0 0 45 45" shape-rendering="crispEdges"><path fill="#FFFFFF" d="M0 0h45v45H0z"/><path stroke="#000000" d="M2 2.5h7m3 0h3m1 0h1m1 0h3m3 0h1m2 0h2m1 0h3m3 0h7M2 3.5h1m5 0h1m2 0h1m1 0h1m1 0h2m6 0h1m1 0h1m1 0h2m4 0h2m1 0h1m5 0h1M2 4.5h1m1 0h3m1 0h1m1 0h2m7 0h2m3 0h1m2 0h2m1 0h1m1 0h1m3 0h1m1 0h3m1 0h1M2 5.5h1m1 0h3m1 0h1m1 0h4m4 0h1m2 0h1m3 0h2m1 0h1m2 0h1m2 0h1m1 0h1m1 0h3m1 0h1M2 6.5h1m1 0h3m1 0h1m3 0h2m2 0h1m1 0h1m4 0h4m3 0h4m2 0h1m1 0h3m1 0h1M2 7.5h1m5 0h1m2 0h1m1 0h1m6 0h4m1 0h1m1 0h2m1 0h1m3 0h1m1 0h1m5 0h1M2 8.5h7m1 0h1m1 0h1m1 0h1m1 0h1m1 0h1m1 0h1m1 0h1m1 0h1m1 0h1m1 0h1m1 0h1m1 0h1m1 0h1m1 0h7M12 9.5h3m1 0h1m2 0h1m1 0h4m1 0h3m4 0h2M5 10.5h2m1 0h2m3 0h1m3 0h1m2 0h1m5 0h2m1 0h1m1 0h1m2 0h1m4 0h2M2 11.5h2m1 0h2m3 0h3m5 0h1m2 0h6m1 0h2m3 0h1m4 0h1M3 12.5h7m4 0h2m3 0h4m2 0h1m1 0h3m1 0h2m2 0h1m2 0h1m1 0h1M3 13.5h2m1 0h1m2 0h3m1 0h2m1 0h3m1 0h1m6 0h2m1 0h2m1 0h4m1 0h2m2 0h1M2 14.5h2m1 0h2m1 0h1m2 0h1m2 0h1m6 0h1m7 0h2m5 0h2m3 0h2M2 15.5h1m1 0h2m1 0h1m2 0h1m2 0h1m4 0h2m1 0h1m3 0h4m1 0h3m2 0h5m2 0h1M2 16.5h1m2 0h1m1 0h3m5 0h2m3 0h3m2 0h4m1 0h1m1 0h2m1 0h2m5 0h1M3 17.5h5m2 0h4m1 0h1m2 0h3m1 0h1m1 0h2m1 0h1m1 0h1m3 0h3m1 0h5M3 18.5h1m1 0h1m2 0h2m4 0h1m1 0h2m2 0h1m2 0h2m5 0h1m4 0h1m6 0h1M2 19.5h1m2 0h1m4 0h3m3 0h1m1 0h4m2 0h1m2 0h1m1 0h1m1 0h5m2 0h3M2 20.5h2m2 0h5m2 0h1m2 0h3m3 0h1m1 0h1m1 0h2m1 0h1m1 0h1m1 0h1m3 0h2m3 0h1M3 21.5h2m1 0h1m2 0h1m3 0h1m1 0h4m1 0h1m2 0h3m2 0h1m4 0h2m3 0h1m1 0h2M2 22.5h2m4 0h1m1 0h1m1 0h1m1 0h1m4 0h6m1 0h4m2 0h2m2 0h1m2 0h4M2 23.5h3m2 0h1m3 0h2m1 0h2m6 0h1m4 0h1m1 0h1m2 0h2m1 0h1m1 0h2m1 0h1M2 24.5h1m2 0h2m1 0h2m1 0h2m3 0h1m1 0h1m1 0h1m4 0h3m1 0h1m4 0h1m1 0h1m2 0h2M2 25.5h2m2 0h1m2 0h1m3 0h3m1 0h2m1 0h2m2 0h2m1 0h3m1 0h1m1 0h7M3 26.5h1m1 0h1m1 0h4m1 0h2m1 0h1m1 0h1m4 0h4m1 0h1m5 0h2m1 0h2m4 0h1M4 27.5h2m5 0h2m1 0h1m1 0h1m1 0h2m3 0h1m1 0h1m1 0h1m1 0h3m2 0h1m1 0h3m1 0h3M5 28.5h5m1 0h2m1 0h1m1 0h2m1 0h2m6 0h4m1 0h5m1 0h2m2 0h1M2 29.5h2m3 0h1m2 0h6m1 0h1m1 0h1m2 0h1m3 0h1m2 0h1m3 0h1m2 0h7M4 30.5h1m2 0h2m1 0h1m3 0h2m2 0h4m2 0h3m1 0h1m1 0h1m2 0h1m3 0h1m1 0h1m2 0h1M2 31.5h3m1 0h1m2 0h1m1 0h1m1 0h1m2 0h2m1 0h4m1 0h1m3 0h1m1 0h1m2 0h2m3 0h1M2 32.5h2m1 0h4m4 0h2m1 0h1m1 0h1m5 0h2m3 0h1m1 0h1m1 0h1m1 0h1m4 0h3M2 33.5h2m2 0h2m1 0h2m2 0h1m3 0h4m3 0h2m1 0h2m7 0h1m1 0h1m1 0h1M2 34.5h2m3 0h2m2 0h2m1 0h2m1 0h3m1 0h1m1 0h1m1 0h1m3 0h3m2 0h5m1 0h1m1 0h1M10 35.5h1m2 0h1m1 0h3m1 0h4m5 0h2m1 0h2m1 0h1m3 0h2M2 36.5h7m1 0h1m1 0h1m1 0h1m1 0h1m3 0h1m1 0h1m2 0h5m3 0h2m1 0h1m1 0h1M2 37.5h1m5 0h1m2 0h1m2 0h7m1 0h2m1 0h1m3 0h2m1 0h3m3 0h2M2 38.5h1m1 0h3m1 0h1m1 0h1m1 0h1m3 0h5m2 0h3m1 0h1m1 0h3m1 0h7m1 0h2M2 39.5h1m1 0h3m1 0h1m1 0h1m1 0h1m2 0h3m1 0h1m2 0h5m2 0h1m2 0h1m4 0h1m1 0h4M2 40.5h1m1 0h3m1 0h1m4 0h1m1 0h1m3 0h1m2 0h1m3 0h4m1 0h1m1 0h1m1 0h1m1 0h2m1 0h3M2 41.5h1m5 0h1m3 0h3m1 0h1m1 0h3m1 0h3m2 0h4m2 0h1m1 0h2m1 0h3m1 0h1M2 42.5h7m2 0h1m2 0h1m5 0h1m1 0h1m2 0h2m2 0h1m2 0h3m3 0h2"/></svg>
